<svg xmlns="http://www.w3.org/2000/svg" viewBox="0 0 64.95 64.95"><defs><style>.cls-1,.cls-2{fill:#0c73b8;}.cls-1{opacity:0.5;}</style></defs><title>css</title><g id="Layer_2" data-name="Layer 2"><g id="Layer_1-2" data-name="Layer 1"><circle class="cls-1" cx="32.47" cy="32.47" r="32.47"/><path class="cls-2" d="M57.75,6.48a7.49,7.49,0,0,0-5.06-1.92H12.25A7.67,7.67,0,0,0,5.38,8.81a7.49,7.49,0,0,0-.82,3.44V52.69a7.69,7.69,0,0,0,7.69,7.7H52.69a7.7,7.7,0,0,0,7.7-7.7V12.25A7.59,7.59,0,0,0,57.75,6.48ZM47.89,15.1c-.52,5.45-1,10.92-1.46,16.38C46,36,45.64,40.46,45.28,45c-.2,2.5-.17,2.51-2.59,3.19-3.41,1-6.82,1.9-10.22,2.87a2.94,2.94,0,0,1-1.61,0c-4-1.1-8-2.2-12-3.27a1.19,1.19,0,0,1-1-1.27c-.19-2.76-.44-5.53-.69-8.28-.07-.72.13-1,.87-1,1.53,0,3.05,0,4.58,0,.6,0,.9.21.94.83.09,1.15.24,2.29.3,3.44a1.21,1.21,0,0,0,1,1.28c1.93.48,3.82,1,5.74,1.56a2.4,2.4,0,0,0,1.43,0c1.93-.54,3.87-1.09,5.83-1.59A1.28,1.28,0,0,0,39,41.39c.17-2.24.4-4.49.63-6.72.09-.89-.37-1-1.1-1-4.3,0-8.59,0-12.9,0-1.33,0-1.35,0-1.5-1.35s-.21-2.85-.36-4.27c-.07-.79.44-.74.94-.75,2.71,0,5.43,0,8.14,0,2.14,0,4.27,0,6.41,0,.75,0,1.08-.25,1.13-1.05.07-1.6.2-3.22.42-4.82.11-.85-.18-1.09-1-1.08H28.23v0H16.79c-1.16,0-1.22-.09-1.31-1.24-.1-1.36-.21-2.73-.36-4.09-.1-.78.11-1.06,1-1.07q15.27,0,30.53-.13C47.72,13.75,48.05,13.53,47.89,15.1Z"/></g></g></svg>