<svg xmlns="http://www.w3.org/2000/svg" viewBox="0 0 66 66"><defs><style>.cls-1,.cls-2{fill:#f16529;}.cls-1{opacity:0.5;}</style></defs><title>html</title><g id="Layer_2" data-name="Layer 2"><g id="Layer_1-2" data-name="Layer 1"><circle class="cls-1" cx="33" cy="33" r="33"/><path class="cls-2" d="M49.5,16.67c-.23,1.44-.5,2.87-.68,4.31-.13,1-.61,1.29-1.58,1.29q-10.55,0-21.11,0c-1.66,0-1.7,0-1.25,1.66.92,3.35.08,2.74,3.51,2.77,5.84.05,11.69,0,17.52,0,1.46,0,1.52,0,1.37,1.5-.55,5-1.12,10-1.68,15.06-.12,1.07-.27,2.14-.33,3.22a1.44,1.44,0,0,1-1,1.42c-3.27,1.3-6.57,2.55-9.81,3.9a2.07,2.07,0,0,1-1.72,0c-3.27-1.37-6.61-2.65-9.91-4a1.45,1.45,0,0,1-1-1.21c-.46-2.46-1-4.91-1.48-7.37a1.13,1.13,0,0,1,0-.84,61.58,61.58,0,0,1,6.2-.08l1.33,3.85a59.08,59.08,0,0,0,5.36,2.67c.2,0,5.6-2,5.76-2.15s.89-5.34,1.19-7.53c.17-1.3,0-1.44-1.23-1.44q-8.84,0-17.64,0c-1.19,0-1.73-.28-1.87-1.54-.6-5.39-1.35-10.77-2-16.16-.12-1,.53-1,1.19-1,2.85,0,5.7,0,8.54,0,2.13,0,4.26,0,6.4,0H48.15C49.7,15.07,49.74,15.13,49.5,16.67ZM54,5.24H13A7.8,7.8,0,0,0,5.24,13V54a7.8,7.8,0,0,0,7.8,7.8H54a7.8,7.8,0,0,0,7.8-7.8V13A7.8,7.8,0,0,0,54,5.24Z"/></g></g></svg>