<svg xmlns="http://www.w3.org/2000/svg" viewBox="0 0 70 70"><defs><style>.cls-1,.cls-2{fill:#fcdc00;}.cls-1{opacity:0.5;}</style></defs><title>js</title><g id="Layer_2" data-name="Layer 2"><g id="Layer_1-2" data-name="Layer 1"><circle class="cls-1" cx="35" cy="35" r="35"/><path class="cls-2" d="M55.75,6.53H15.18a7.72,7.72,0,0,0-7.71,7.72V54.82a7.71,7.71,0,0,0,7.71,7.71H55.75a7.72,7.72,0,0,0,7.72-7.71V14.25A7.72,7.72,0,0,0,55.75,6.53ZM29.22,30.93c1.94,0,3.86,0,5.8,0H46.61c.93,0,.92,0,.84,1q-.57,6.43-1.12,12.91c-.09.89-.21,1.79-.28,2.68a.75.75,0,0,1-.6.71L35.19,51a1.9,1.9,0,0,1-1.06,0L23.78,48.12a.71.71,0,0,1-.6-.69c-.2-2.46-.41-4.92-.65-7.38-.05-.49.11-.66.58-.66,1.36,0,2.73,0,4.09,0,.52,0,.73.22.76.73.06,1,.19,2,.26,3a1,1,0,0,0,.86.93q2.55.64,5.08,1.32a2,2,0,0,0,.92,0c1.64-.45,3.27-.9,4.93-1.32a1.09,1.09,0,0,0,1-1.16c.12-1.85.28-3.7.47-5.54.09-.73-.19-.87-.84-.87-5.65,0-11.28-.22-16.92-.13-1.11,0-1.19-.06-1.08-1.19q.5-5.41,1-10.83c.21-2.27.44-4.56.63-6.84.11-1.2.09-1.22,1.33-1.22h9.9c3.34,0,6.69,0,10,0,.71,0,1,.22,1.08.92l.93,10.38c0,.4-.12.58-.51.58H42.6c-.6,0-.63-.45-.67-.85-.13-1.35-.27-2.71-.35-4.08,0-.62-.22-.89-.9-.95a102,102,0,0,0-10.34-.28c-1.06,0-1.14,0-1.25,1.11-.25,2.38-.44,4.76-.66,7.15C28.37,30.78,28.69,30.93,29.22,30.93Z"/></g></g></svg>