<svg xmlns="http://www.w3.org/2000/svg" viewBox="0 0 270.73 115.61"><defs><style>.cls-1{fill:#fff;}</style></defs><title>logo</title><g id="Layer_2" data-name="Layer 2"><g id="Layer_1-2" data-name="Layer 1"><path class="cls-1" d="M132,43l16.47,7c1.23.52,2.47,1,3.69,1.55a3.09,3.09,0,0,1,1.77,3.61c-.36,1.59-1.73,2.26-3.38,1.58-5.46-2.28-10.9-4.59-16.35-6.89l-8.75-3.7a4,4,0,0,1-2-1.5c-.86-1.41-.4-2.92,1.24-3.88q5.79-3.36,11.59-6.67l53.4-30.47c1.48-.85,2.91-1.78,4.36-2.67a5,5,0,0,1,5.55-.1c3.77,2.22,7.53,4.44,11.33,6.62Q235,21.2,259.08,34.94c3.25,1.86,6.5,3.75,9.75,5.6,1.06.61,2,1.3,1.9,2.68a3.23,3.23,0,0,1-2.29,2.85c-2.68,1.16-5.39,2.24-8.06,3.42-3.92,1.73-3.21.52-3.23,4.88,0,7.79,0,15.58,0,23.37,0,1.27.3,1.79,1.67,1.75,1.66-.06,2.7,1,2.85,2.84.39,4.68.7,9.38,1.05,14.07.13,1.74.23,3.48.42,5.22.26,2.45-.56,3.44-3,3.44h-11.5c-2.17,0-3.12-.89-3-3,.22-3.86.54-7.72.83-11.57.2-2.66.41-5.31.63-8,.18-2.1,1.09-3,3.19-3,1,0,1.35-.38,1.35-1.39,0-7.83,0-15.66,0-23.5,0-1.29-.13-1.36-1.38-.83-2.19.92-4.37,1.86-6.56,2.77-1.84.76-3,.45-3.59-.92a3.06,3.06,0,0,1,1.59-4.09c1.7-.77,3.44-1.48,5.16-2.21l13.93-5.89c.29-.12.77-.12.81-.48s-.46-.52-.76-.69q-17.3-9.91-34.6-19.8Q212.1,14.39,198,6.3a1.91,1.91,0,0,0-2.18,0q-31.38,18-62.78,36C132.73,42.39,132.44,42.61,132,43ZM254.3,99.75h1c2.11,0,2.16,0,2-2.17-.2-3.23-.53-6.46-.71-9.7-.16-3-.22-3.07-3.17-2.9-.83,0-1.19.38-1.25,1.2-.23,3.53-.55,7-.74,10.58C251.28,99.75,251.34,99.75,254.3,99.75Z"/><path class="cls-1" d="M163.43,96.84c0,2.67,0,5.33,0,8,0,1-.26,1.5-1.4,1.48-3.46,0-6.92,0-10.37,0a7.65,7.65,0,0,1-4.45-1.44,1.39,1.39,0,0,0-1.78,0,10.68,10.68,0,0,1-5.49,1.46c-12.79,0-25.57,0-38.36,0a8.79,8.79,0,0,1-8.51-11.07c.93-3.32,4.17-5.62,8.08-5.76,1.81-.07,1.84-.06,2-1.87a1,1,0,0,1,1.19-1.1c1.91,0,3.83,0,5.75,0,1,0,1.4.36,1.38,1.39,0,2.91,0,5.83,0,8.75,0,1.62,0,1.64,1.71,1.64a18.87,18.87,0,0,1,2,0c1.07.09,1.5-.31,1.47-1.42-.06-2.71,0-5.42,0-8.12,0-1.16.4-1.55,1.53-1.51,1.83.07,3.66.05,5.49,0,1,0,1.34.34,1.33,1.32,0,2.75,0,5.5,0,8.25,0,1,.28,1.49,1.41,1.48,2.42,0,2.42,0,2.53-2.44a10,10,0,0,1,9.38-9.38c6.41-.33,10.59,3.18,11.44,9.61a2.21,2.21,0,0,0,2.42,2.16c3.52,0,3,.36,3-2.93,0-2.25,0-4.5,0-6.75,0-1,.37-1.34,1.33-1.32,1.87,0,3.75,0,5.62,0,1,0,1.42.33,1.4,1.37C163.39,91.34,163.42,94.09,163.43,96.84ZM142.1,95.53a2.75,2.75,0,0,0-2.95-3,2.94,2.94,0,0,0-2.87,3.25c0,2.1.52,2.57,2.68,2.59S142.11,97.4,142.1,95.53Zm-39,1.36c0-.88.08-1.72-1.22-1.64-1,.06-1.73.32-1.76,1.47,0,1,.81,1.62,1.94,1.69S103.11,97.6,103.14,96.89Z"/><path class="cls-1" d="M181,53.47h4.22a7.47,7.47,0,0,0,7.55-6.32c.2-1.15.68-1.44,1.72-1.41,1.66,0,3.33.06,5,0a1.37,1.37,0,0,1,1.65,1.36A7.4,7.4,0,0,0,205.94,53a7.06,7.06,0,0,0,2.68.48c3.45.07,6.91-.2,10.36.21,6.74.8,13,7.54,13.21,14.16,0,1.52-.06,1.62-1.6,1.63s-3.33,0-5,0a1.25,1.25,0,0,1-1.49-1.25,7.49,7.49,0,0,0-7.74-6.69c-2.42,0-4.83,0-7.25,0A15.39,15.39,0,0,1,197.73,57c-.59-.58-.93-.55-1.52,0a16.23,16.23,0,0,1-11.91,4.57,41.62,41.62,0,0,0-8.35.18,7.45,7.45,0,0,0-6.24,6.58c-.11.84-.42,1.17-1.24,1.16-1.88,0-3.75,0-5.63,0-.93,0-1.23-.44-1.19-1.32.29-7,6.25-13.48,13.33-14.48A58,58,0,0,1,181,53.47Z"/><path class="cls-1" d="M209.24,88.13c1.72.17,3.13.1,4.53.28,4.9.65,8.06,4.11,8.11,9,0,2.5,0,5,0,7.5,0,1-.33,1.39-1.37,1.39q-15.18,0-30.36,0c-1,0-1.33-.32-1.33-1.3q0-11.11,0-22.24c0-1,.43-1.3,1.35-1.29,1.88,0,3.75.05,5.63,0,1,0,1.38.39,1.37,1.4,0,4.58,0,9.16,0,13.74,0,1.57.06,1.62,1.61,1.62,4.25,0,8.5,0,12.74,0,.69,0,1.69.5,2-.64a2.87,2.87,0,0,0-1.41-3.07,4,4,0,0,0-1.71-.26c-2.58,0-5.17,0-7.75,0-1.12,0-1.62-.39-1.53-1.53.14-1.93-.3-3.89.59-5.78a13.22,13.22,0,0,1,7.82-6.75,28.48,28.48,0,0,1,6.95-1.45c.72-.09,1.24.08,1.35.9.2,1.56.38,3.14.61,4.7.11.73-.25,1-.88,1a27.58,27.58,0,0,0-4.78.89A9.68,9.68,0,0,0,209.24,88.13Z"/><path class="cls-1" d="M20.62,97.43c-.11,2.62,0,5.9-.1,9.19-.11,4.29-3.41,7.68-8.24,8.41a68.63,68.63,0,0,1-8.6.24c-.79,0-1.13-.34-1.11-1.13,0-1.58,0-3.17,0-4.75,0-.87.38-1.17,1.21-1.17,2,0,4.07,0,6.11,0a2.61,2.61,0,0,0,2.24-.89.74.74,0,0,0,.2-.8c-.13-.27-.43-.21-.67-.21a17.2,17.2,0,0,1-3.72-.3C.73,104.43-2.45,95.82,2.15,90.23a9.73,9.73,0,0,1,7.46-3.51c3.24-.12,6.49,0,9.74-.06,1,0,1.28.45,1.28,1.36C20.6,90.93,20.62,93.85,20.62,97.43Zm-8-1.57c0-2.78-.06-2.85-2.44-2.59A2.41,2.41,0,0,0,8,96c.11,1.64,1.39,2.52,3.53,2.47,1.8,0,.85-1.4,1.09-2.19A1.53,1.53,0,0,0,12.57,95.86Z"/><path class="cls-1" d="M70.68,93.87c0,3.62,0,7.24,0,10.86,0,1.18-.33,1.62-1.56,1.6-3.45-.07-6.91,0-10.37,0-1,0-1.46.18-1.73,1.25-.77,3.14-3.1,5-6.68,5.18-4.51.22-3.63.54-3.72-3.32,0-1.2,0-2.41,0-3.62,0-.58.13-1,.85-1.15,1.54-.34,1.83-.75,1.83-2.46,0-4.45,0-8.91,0-13.36,0-1.25.36-1.71,1.64-1.64,1.74.09,3.49,0,5.24,0,.93,0,1.25.37,1.24,1.26,0,2.79,0,5.58,0,8.37,0,1.08.34,1.57,1.44,1.44a6.52,6.52,0,0,1,1,0c2.89.06,2.51.13,2.52-2.57,0-4.2,0-8.41,0-12.61,0-1.22.43-1.61,1.6-1.57,1.79.07,3.58,0,5.37,0,1,0,1.4.35,1.39,1.38C70.65,86.54,70.67,90.2,70.68,93.87Z"/><path class="cls-1" d="M45.62,96.8c0,2.67,0,5.33,0,8,0,1.1-.32,1.55-1.5,1.53-3.5-.07-7,0-10.49,0-.94,0-1.39.22-1.65,1.2-.87,3.27-3.29,5.14-6.9,5.26-4.17.13-3.41.46-3.48-3.2,0-1.25,0-2.5,0-3.75,0-.58.09-1.09.83-1.15,1.43-.1,1.72-1.05,1.72-2.26q0-6.31,0-12.63c0-2.57,0-2.57,2.5-2.57,1.42,0,2.84.06,4.25,0,1.19-.07,1.51.43,1.49,1.54,0,2.7,0,5.41,0,8.12,0,1.1.4,1.44,1.47,1.43,3.47,0,3.47,0,3.47-3.51,0-2.08,0-4.16,0-6.25,0-.89.31-1.29,1.23-1.28,1.92,0,3.84,0,5.75,0,1,0,1.35.38,1.34,1.33C45.6,91.3,45.62,94.05,45.62,96.8Z"/><path class="cls-1" d="M175.54,106.3c-3.17,0-6.34,0-9.5,0-1.17,0-1.53-.41-1.49-1.53.07-1.74.06-3.5,0-5.24,0-1,.38-1.33,1.32-1.32,3.17,0,6.33,0,9.5,0,1.41,0,1.48-.14.9-1.4a18.88,18.88,0,0,0-4.81-6.32c-.76-.68-.71-1,.17-1.52,1.4-.74,2.77-1.54,4.11-2.38a1.5,1.5,0,0,1,1.92.14c4.83,3.55,7.44,8.42,8.49,14.22.22,1.23.36,2.47.47,3.71.12,1.43,0,1.6-1.47,1.6C182,106.31,178.74,106.3,175.54,106.3Z"/><path class="cls-1" d="M82.68,93.87c0,3.66,0,7.33,0,11,0,1.07-.32,1.49-1.43,1.45-1.87-.07-3.75,0-5.62,0-.89,0-1.29-.28-1.29-1.21q0-11.19,0-22.38c0-.83.35-1.22,1.19-1.22,2,0,4,0,6,0,1,0,1.14.55,1.13,1.37C82.67,86.53,82.68,90.2,82.68,93.87Z"/><path class="cls-1" d="M232.7,94c0,3.62,0,7.24,0,10.87,0,1.15-.38,1.54-1.52,1.49-1.87-.07-3.75,0-5.62,0-.87,0-1.19-.35-1.19-1.18q0-11.19,0-22.37c0-.89.38-1.27,1.27-1.26,1.92,0,3.83,0,5.75,0,1,0,1.31.38,1.3,1.35C232.68,86.54,232.7,90.25,232.7,94Z"/><path class="cls-1" d="M104.15,80.25c1.44-1.93,3-2.47,4.8-1.71a3,3,0,0,1,1.73,3.51,2.83,2.83,0,0,1-2.57,2.48,3.36,3.36,0,0,1-3.52-1.34c-.61-.94-.75,0-1,.28a3.57,3.57,0,0,1-4.3.87,3.14,3.14,0,0,1-1.64-3.57,2.92,2.92,0,0,1,2.17-2.33,3.44,3.44,0,0,1,3.56.87A8.11,8.11,0,0,1,104.15,80.25Z"/><path class="cls-1" d="M46.43,112.23a3.08,3.08,0,0,1-1.64,2.9,3.37,3.37,0,0,1-3.77-.27c-.71-.59-1.06-.51-1.73,0a3.51,3.51,0,0,1-4.29-.12,3.33,3.33,0,0,1-.78-3.77,3.38,3.38,0,0,1,5.09-1.19,1.12,1.12,0,0,0,1.67,0,3.56,3.56,0,0,1,3.9-.24A2.93,2.93,0,0,1,46.43,112.23Z"/><path class="cls-1" d="M127,112.48a2.71,2.71,0,0,1-1.63,2.73,3.6,3.6,0,0,1-3.89-.38c-.54-.44-.79-.56-1.39,0a3.31,3.31,0,1,1,0-4.76c.62.55.89.33,1.41-.08a3.5,3.5,0,0,1,3.88-.34A2.88,2.88,0,0,1,127,112.48Z"/><path class="cls-1" d="M155.17,109.18a2.87,2.87,0,0,1,2.2.74c.54.55.84.48,1.4,0a3.63,3.63,0,0,1,4.08-.29,3.08,3.08,0,0,1,1.34,3.37,3.29,3.29,0,0,1-5.18,1.93c-.8-.62-1.2-.5-1.94,0a3.46,3.46,0,0,1-4,0,3.2,3.2,0,0,1-1.18-3.33C152.22,110.05,153.34,109.2,155.17,109.18Z"/><path class="cls-1" d="M53.66,78.69c2.13,0,3.47,1.13,3.51,3A3.18,3.18,0,0,1,53.75,85c-2.15,0-3.47-1.21-3.47-3.2S51.52,78.7,53.66,78.69Z"/></g></g></svg>