<svg xmlns="http://www.w3.org/2000/svg" viewBox="0 0 1366 78"><defs><style>.cls-1{fill:#2965f1;}</style></defs><title>wave</title><g id="Layer_2" data-name="Layer 2"><g id="Layer_1-2" data-name="Layer 1"><path class="cls-1" d="M1366,0V10.39c-32.54,12.67-59.9,21.52-80.32,27.55-19.39,5.74-35.29,9.75-41.92,11.4-12.63,3.13-25.58,6-40.27,9.08-54,11.11-108.43,18-163.59,18.85a37.38,37.38,0,0,0-4.9.73h-31c-2-1-4.24-.77-6.39-.75-15.84.13-31.62-1.1-47.39-2.37C907,71.4,864.39,63.69,822.26,53.4c-42.54-10.4-85-21.32-128.75-25.59-44.11-4.3-88.14-3.39-132.16.72-38.91,3.63-77.1,11.32-114.84,21.22-59.38,15.57-119.54,23-181,19.61A745.42,745.42,0,0,1,159,56.17,756.7,756.7,0,0,1,0,5V0Z"/></g></g></svg>